<svg width="280" height="311" viewBox="0 0 280 311" fill="none" xmlns="http://www.w3.org/2000/svg">
<path fill-rule="evenodd" clip-rule="evenodd" d="M279.142 216.458V95.0263C279.142 82.9559 272.684 71.822 262.162 65.7868L156.951 5.01874C146.43 -1.01645 133.617 -1.01645 123.096 5.01874L17.8843 65.6828C7.36319 71.718 0.904663 82.8518 0.904663 95.0263V216.458C0.904663 228.529 7.36319 239.663 17.8843 245.698L123.096 306.362C133.617 312.397 146.43 312.397 156.951 306.362L262.267 245.594C272.684 239.663 279.142 228.529 279.142 216.458Z" fill="#30B470"/>
<path fill-rule="evenodd" clip-rule="evenodd" d="M140.076 292.21C137.471 292.21 134.867 291.482 132.471 290.233L27.2597 229.465C22.572 226.76 19.6553 221.765 19.6553 216.354V95.0263C19.6553 89.6154 22.572 84.6208 27.1555 81.9154L132.471 21.1473C134.763 19.7945 137.367 19.1702 140.076 19.1702C142.784 19.1702 145.284 19.8986 147.68 21.1473L252.996 81.9154C257.683 84.6208 260.6 89.6154 260.6 95.0263V216.458C260.6 221.869 257.683 226.864 252.996 229.569L147.68 290.337C145.284 291.482 142.68 292.21 140.076 292.21Z" fill="#FC6199"/>
<mask id="mask0_4_80" style="mask-type:alpha" maskUnits="userSpaceOnUse" x="10" y="133" width="259" height="61">
<path d="M10.6458 133.301H268.646V193.301H10.6458V133.301Z" fill="white"/>
</mask>
<g mask="url(#mask0_4_80)">
<path fill-rule="evenodd" clip-rule="evenodd" d="M10.6458 34.2317H268.646V292.232H10.6458V34.2317Z" fill="#30B470"/>
</g>
<mask id="mask1_4_80" style="mask-type:alpha" maskUnits="userSpaceOnUse" x="122" y="244" width="36" height="35">
<path d="M122 244H157.139V278.037H122V244Z" fill="white"/>
</mask>
<g mask="url(#mask1_4_80)">
<path fill-rule="evenodd" clip-rule="evenodd" d="M144.917 255.167L157.139 256.912L148.335 265.657L150.471 277.948L139.523 272.186L128.621 278.037L130.658 265.73L121.785 257.056L133.992 255.212L139.41 244L144.917 255.167Z" fill="white"/>
</g>
<path fill-rule="evenodd" clip-rule="evenodd" d="M178.87 65.8803C178.87 64.6713 178.312 63.7413 177.289 63.0903C177.103 62.9973 176.824 62.8113 176.638 62.7183C176.638 59.6494 176.545 56.4875 176.359 53.3256C175.987 46.0718 172.174 42.5378 165.013 42.4448C158.782 42.4448 152.551 42.4448 146.32 42.4448C136.183 42.4448 126.139 42.3518 116.002 42.5378C106.702 42.7238 102.982 46.6297 102.982 55.9295C102.982 58.1614 102.982 60.3934 102.982 62.7183C102.424 62.9043 101.959 63.3693 101.587 63.8343C100.936 64.3923 100.75 65.2293 100.75 66.1592C100.75 70.4371 100.75 74.715 100.75 79.0859C100.75 80.3879 101.215 81.4109 102.331 82.0618C102.61 82.2478 102.796 82.3408 103.075 82.4338C103.075 91.6406 103.075 100.754 103.075 109.961C103.075 111.263 102.889 112.751 103.54 113.867C104.935 116.099 104.656 118.517 104.749 120.935C104.842 123.911 106.795 125.957 109.771 126.05C111.91 126.143 114.049 126.143 116.188 126.05C119.257 125.957 121.21 124.19 121.303 121.121C121.396 119.819 121.582 119.354 123.07 119.354C134.23 119.447 145.483 119.447 156.643 119.354C158.038 119.354 158.41 119.726 158.41 121.121C158.503 124.376 160.456 126.05 163.711 126.05C165.571 126.05 167.431 126.05 169.291 126.05C173.104 126.05 174.964 124.097 175.057 120.284C175.057 118.796 174.592 117.122 175.429 115.727C176.452 113.867 176.731 112.007 176.731 109.961C176.731 101.312 176.731 92.6636 176.731 82.4338C177.382 82.3408 177.94 81.7829 178.312 81.2249C178.777 80.6669 178.963 79.9229 178.963 79.1789C178.87 74.808 178.87 70.3441 178.87 65.8803ZM124.279 49.1407C129.859 49.1407 135.439 49.1407 140.926 49.1407C146.32 49.1407 151.714 49.1407 157.201 49.1407C159.619 49.1407 159.898 49.5127 159.991 52.3026C159.991 55.3715 159.712 55.8365 157.387 55.8365C146.32 55.8365 135.253 55.8365 124.279 55.8365C121.861 55.8365 121.396 55.2785 121.396 52.4886C121.303 49.6987 121.768 49.1407 124.279 49.1407ZM117.304 111.077C114.049 111.077 111.352 108.38 111.352 105.125C111.445 101.963 114.142 99.3594 117.211 99.3594C120.466 99.3594 122.884 101.87 122.884 105.218C122.977 108.473 120.466 111.077 117.304 111.077ZM116.467 90.9896C112.933 90.9896 111.352 89.3157 111.352 85.6888C111.352 79.1789 111.352 72.6691 111.352 66.1592C111.352 62.5323 112.84 61.0444 116.467 61.0444C124.279 61.0444 131.998 61.0444 139.81 61.0444C147.436 61.0444 155.062 61.0444 162.688 61.0444C166.78 61.0444 168.175 62.4393 168.175 66.4382C168.175 72.6691 168.175 78.8999 168.175 85.1308C168.175 88.8507 166.129 90.8966 162.409 90.9896C147.157 90.9896 131.812 90.9896 116.467 90.9896ZM162.409 111.077C159.247 111.077 156.736 108.566 156.643 105.311C156.643 101.963 159.061 99.4524 162.316 99.4524C165.571 99.4524 168.268 102.149 168.268 105.404C168.175 108.38 165.571 111.077 162.409 111.077Z" fill="white"/>
<path d="M87.1878 179.45C84.7878 179.45 82.9578 178.775 81.6978 177.425C80.4378 176.045 79.8078 174.08 79.8078 171.53V154.97C79.8078 152.42 80.4378 150.47 81.6978 149.12C82.9578 147.74 84.7878 147.05 87.1878 147.05C89.5878 147.05 91.4178 147.74 92.6778 149.12C93.9378 150.47 94.5678 152.42 94.5678 154.97V157.67H89.8878V154.655C89.8878 152.585 89.0328 151.55 87.3228 151.55C85.6128 151.55 84.7578 152.585 84.7578 154.655V171.89C84.7578 173.93 85.6128 174.95 87.3228 174.95C89.0328 174.95 89.8878 173.93 89.8878 171.89V165.725H87.4128V161.225H94.5678V171.53C94.5678 174.08 93.9378 176.045 92.6778 177.425C91.4178 178.775 89.5878 179.45 87.1878 179.45ZM101.616 152H96.4409V147.5H111.741V152H106.566V179H101.616V152ZM114.137 147.5H127.232V152H119.087V160.775H125.477V165.275H119.087V179H114.137V147.5ZM136.041 179.45C133.641 179.45 131.826 178.775 130.596 177.425C129.366 176.045 128.751 174.08 128.751 171.53V169.73H133.431V171.89C133.431 173.93 134.286 174.95 135.996 174.95C136.836 174.95 137.466 174.71 137.886 174.23C138.336 173.72 138.561 172.91 138.561 171.8C138.561 170.48 138.261 169.325 137.661 168.335C137.061 167.315 135.951 166.1 134.331 164.69C132.291 162.89 130.866 161.27 130.056 159.83C129.246 158.36 128.841 156.71 128.841 154.88C128.841 152.39 129.471 150.47 130.731 149.12C131.991 147.74 133.821 147.05 136.221 147.05C138.591 147.05 140.376 147.74 141.576 149.12C142.806 150.47 143.421 152.42 143.421 154.97V156.275H138.741V154.655C138.741 153.575 138.531 152.795 138.111 152.315C137.691 151.805 137.076 151.55 136.266 151.55C134.616 151.55 133.791 152.555 133.791 154.565C133.791 155.705 134.091 156.77 134.691 157.76C135.321 158.75 136.446 159.95 138.066 161.36C140.136 163.16 141.561 164.795 142.341 166.265C143.121 167.735 143.511 169.46 143.511 171.44C143.511 174.02 142.866 176 141.576 177.38C140.316 178.76 138.471 179.45 136.041 179.45ZM157.426 152H152.251V147.5H167.551V152H162.376V179H157.426V152ZM174.257 152H169.082V147.5H184.382V152H179.207V179H174.257V152ZM193.214 179.45C190.814 179.45 188.999 178.775 187.769 177.425C186.539 176.045 185.924 174.08 185.924 171.53V169.73H190.604V171.89C190.604 173.93 191.459 174.95 193.169 174.95C194.009 174.95 194.639 174.71 195.059 174.23C195.509 173.72 195.734 172.91 195.734 171.8C195.734 170.48 195.434 169.325 194.834 168.335C194.234 167.315 193.124 166.1 191.504 164.69C189.464 162.89 188.039 161.27 187.229 159.83C186.419 158.36 186.014 156.71 186.014 154.88C186.014 152.39 186.644 150.47 187.904 149.12C189.164 147.74 190.994 147.05 193.394 147.05C195.764 147.05 197.549 147.74 198.749 149.12C199.979 150.47 200.594 152.42 200.594 154.97V156.275H195.914V154.655C195.914 153.575 195.704 152.795 195.284 152.315C194.864 151.805 194.249 151.55 193.439 151.55C191.789 151.55 190.964 152.555 190.964 154.565C190.964 155.705 191.264 156.77 191.864 157.76C192.494 158.75 193.619 159.95 195.239 161.36C197.309 163.16 198.734 164.795 199.514 166.265C200.294 167.735 200.684 169.46 200.684 171.44C200.684 174.02 200.039 176 198.749 177.38C197.489 178.76 195.644 179.45 193.214 179.45Z" fill="white"/>
</svg>
